Coordinates
version=1
nRows=16
nColumns=40
inDegrees=yes

Units are S.I. units (second, meters, Newtons, ...)
Angles are in degrees.

endheader
time	pelvis_tilt	pelvis_list	pelvis_rotation	pelvis_tx	pelvis_ty	pelvis_tz	hip_flexion_r	hip_adduction_r	hip_rotation_r	knee_angle_r	knee_angle_r_beta	ankle_angle_r	subtalar_angle_r	mtp_angle_r	hip_flexion_l	hip_adduction_l	hip_rotation_l	knee_angle_l	knee_angle_l_beta	ankle_angle_l	subtalar_angle_l	mtp_angle_l	lumbar_extension	lumbar_bending	lumbar_rotation	arm_flex_r	arm_add_r	arm_rot_r	elbow_flex_r	pro_sup_r	wrist_flex_r	wrist_dev_r	arm_flex_l	arm_add_l	arm_rot_l	elbow_flex_l	pro_sup_l	wrist_flex_l	wrist_dev_l
     29.19000000	     -4.16839577	     -5.58197464	      2.88893223	      0.85344112	      0.93208823	      0.50730018	     10.68097771	      4.98438249	    -19.58867792	     10.82740138	     10.82740138	      6.55647681	      0.51067207	     -7.51317949	     31.56768325	    -10.84011561	      2.48095720	     64.41956747	     64.41956747	      7.35648799	    -16.14426705	      8.03057199	     -9.43443132	      6.76301536	      5.20128090	     19.34992462	    -15.44346539	     -4.33941672	     42.77650364	     45.95175142	      0.00000000	      0.00000000	      8.35557163	     -6.18966393	     -1.30639552	     26.74989051	     45.55125208	      0.00000000	      0.00000000
     29.20228571	     -4.26281312	     -5.53695046	      3.06483414	      0.85285160	      0.93237439	      0.50814147	      9.92057959	      5.14819552	    -19.60730279	     10.12920464	     10.12920464	      6.75054021	      0.70165379	     -7.45296720	     32.69054847	    -10.90868259	      2.09423047	     61.93942482	     61.93942482	      7.49989792	    -17.14360744	      8.28031824	     -9.42880084	      6.62858821	      4.93917947	     21.40178404	    -15.33197058	     -4.49699230	     44.44943458	     45.90438137	      0.00000000	      0.00000000	      6.94128526	     -6.15281705	     -1.17670154	     25.84370276	     45.51278939	      0.00000000	      0.00000000
     29.21457143	     -4.34757109	     -5.50211577	      3.20867634	      0.85227773	      0.93256221	      0.50905087	      9.16503035	      5.32588241	    -19.59027205	      9.44518255	      9.44518255	      6.93476302	      0.91427822	     -7.41306414	     33.60821814	    -11.02640933	      1.59374053	     59.17129161	     59.17129161	      7.68482746	    -17.76858612	      8.75493406	     -9.46877451	      6.48564260	      4.80229564	     23.34262361	    -15.28023386	     -4.63043470	     46.30735727	     45.84845928	      0.00000000	      0.00000000	      5.59216339	     -6.06797443	     -1.00209672	     24.93834540	     45.46822030	      0.00000000	      0.00000000
     29.22685714	     -4.43721794	     -5.48621161	      3.33956646	      0.85178096	      0.93265097	      0.50984599	      8.40478800	      5.52147645	    -19.58146971	      8.73488831	      8.73488831	      7.09316185	      1.16906204	     -7.39212096	     34.33776682	    -11.11080544	      1.06783253	     56.14674906	     56.14674906	      8.06282170	    -18.10269229	      9.72450470	     -9.49678344	      6.39194511	      4.77870419	     25.05882842	    -15.30487399	     -4.76077373	     48.57706250	     45.77445629	      0.00000000	      0.00000000	      4.35023618	     -5.96472817	     -0.70737343	     23.99036072	     45.40793168	      0.00000000	      0.00000000
     29.23914286	     -4.51883472	     -5.39946881	      3.44501582	      0.85132227	      0.93267148	      0.51050991	      7.73599631	      5.59748932	    -19.52750641	      8.22594525	      8.22594525	      7.30703840	      1.30707677	     -7.38305953	     34.81646469	    -11.05329881	      0.50402910	     52.79208136	     52.79208136	      8.32347100	    -18.32171988	     10.61822122	     -9.54609241	      6.19910923	      4.85082168	     26.82237330	    -15.37887285	     -4.92761921	     50.15750556	     45.73176748	      0.00000000	      0.00000000	      3.14492065	     -5.85762941	     -0.53672951	     23.27437652	     45.36150817	      0.00000000	      0.00000000
     29.25142857	     -4.60177833	     -5.39529265	      3.57364716	      0.85096597	      0.93251906	      0.51099610	      7.03383936	      5.75969280	    -19.54281729	      7.64079514	      7.64079514	      7.51223670	      1.55389789	     -7.38159008	     35.18537934	    -10.95065729	      0.11265143	     49.27907208	     49.27907208	      8.64230768	    -18.34717810	     11.64054847	     -9.57747486	      6.15558745	      4.76952308	     28.53167675	    -15.33015406	     -5.12428542	     52.08853477	     45.67708507	      0.00000000	      0.00000000	      1.89714379	     -5.75746232	     -0.30611166	     22.53419293	     45.30269036	      0.00000000	      0.00000000
     29.26371429	     -4.72186939	     -5.38837346	      3.68372051	      0.85065981	      0.93217612	      0.51130631	      6.41521801	      5.88638025	    -19.62267097	      7.13966792	      7.13966792	      7.74633773	      1.84953142	     -7.41865220	     35.44859487	    -10.73966541	     -0.18105976	     45.57442041	     45.57442041	      8.87781591	    -18.20928772	     12.55717441	     -9.56792246	      6.12731158	      4.77945759	     30.09531317	    -15.36389498	     -5.37151781	     54.14460045	     45.61967446	      0.00000000	      0.00000000	      0.69234824	     -5.62493454	     -0.03282018	     21.94011703	     45.23381569	      0.00000000	      0.00000000
     29.27600000	     -4.89585415	     -5.38573578	      3.75807053	      0.85042218	      0.93164451	      0.51149070	      5.94466578	      5.96714272	    -19.61916643	      6.83282269	      6.83282269	      8.02209680	      2.06822392	     -7.49320275	     35.63176358	    -10.47453459	     -0.40364848	     41.72151639	     41.72151639	      9.02196463	    -17.72323673	     13.11853677	     -9.45872811	      6.06646210	      4.94074047	     31.57674089	    -15.49343124	     -5.59450794	     55.67456801	     45.58111196	      0.00000000	      0.00000000	     -0.44077247	     -5.51176505	      0.13304313	     21.52158358	     45.18221245	      0.00000000	      0.00000000
     29.28828571	     -5.06953474	     -5.38877924	      3.83764708	      0.85030553	      0.93098485	      0.51148178	      5.46395337	      6.03978679	    -19.67968565	      6.51824418	      6.51824418	      8.32345108	      2.35800645	     -7.57486468	     35.70023358	    -10.13296525	     -0.48334766	     37.77760867	     37.77760867	      9.12366337	    -16.91300431	     13.44869592	     -9.35707696	      6.04175660	      4.96785946	     33.03944782	    -15.50889861	     -5.82910677	     57.34601724	     45.53819339	      0.00000000	      0.00000000	     -1.61038781	     -5.38546203	      0.29917909	     21.16112057	     45.12755830	      0.00000000	      0.00000000
     29.30057143	     -5.19206948	     -5.46252628	      3.96015506	      0.85035404	      0.93025191	      0.51124210	      4.92538893	      6.16343703	    -19.90978675	      6.22320180	      6.22320180	      8.65801973	      2.89246100	     -7.64474179	     35.65327949	     -9.80387956	     -0.42508540	     33.83092915	     33.83092915	      9.12107244	    -15.71206769	     13.27490166	     -9.34235096	      6.16607590	      4.87298970	     34.30167426	    -15.41103231	     -6.15787579	     59.60676127	     45.47744014	      0.00000000	      0.00000000	     -2.84814890	     -5.27266904	      0.56415230	     20.99833352	     45.04856469	      0.00000000	      0.00000000
     29.31285714	     -5.48976391	     -5.86280085	      4.05349221	      0.85033869	      0.92891399	      0.51110315	      4.73965127	      6.60684347	    -20.01917290	      6.18033529	      6.18033529	      8.99604759	      2.96609501	     -7.80104544	     36.01653213	     -9.78756142	     -0.11495421	     30.34328740	     30.34328740	      9.26565051	    -14.09827418	     13.48919209	     -8.96372849	      6.62833184	      5.21692169	     35.73154877	    -15.88098418	     -6.40000589	     60.49936689	     45.46318489	      0.00000000	      0.00000000	     -3.91055506	     -5.11076017	      0.60779026	     20.74544612	     45.01804958	      0.00000000	      0.00000000
     29.32514286	     -5.47735702	     -5.66617628	      4.14543401	      0.85093563	      0.92846492	      0.51060489	      3.98365219	      6.39627982	    -20.67243572	      5.92593770	      5.92593770	      9.69829938	      4.42253186	     -7.27237746	     35.36111908	     -9.34136208	     -0.68407266	     26.09421816	     26.09421816	      8.12026403	    -11.85225811	     10.56508934	     -9.15831964	      6.36652373	      5.52016417	     35.67421540	    -15.93386666	     -7.42197169	     65.27929822	     45.34111647	      0.00000000	      0.00000000	     -5.27866107	     -5.26073989	      1.87950648	     21.96442966	     44.72692852	      0.00000000	      0.00000000
     29.33742857	     -5.61393601	     -5.74225426	      4.22770300	      0.85143306	      0.92750803	      0.51012268	      3.50049264	      6.50478648	    -20.69309184	      5.77477796	      5.77477796	     10.07930157	      4.54222057	     -7.30458826	     35.21110398	     -9.07848037	     -0.84945119	     22.69503129	     22.69503129	      8.10053717	     -9.54955694	     10.70118364	     -8.97824193	      6.41723324	      5.41092913	     36.96592300	    -15.79610134	     -7.56297426	     66.33584955	     45.31745128	      0.00000000	      0.00000000	     -6.33977883	     -5.18126963	      2.16733210	     21.62370541	     44.65618579	      0.00000000	      0.00000000
     29.34971429	     -5.86663308	     -6.07465313	      4.36968103	      0.85188444	      0.92614853	      0.50947869	      3.22011127	      6.85158888	    -20.77853108	      5.72634759	      5.72634759	     10.43287253	      4.61671976	     -7.40271351	     35.46841470	     -8.98647713	     -0.69798752	     20.01702398	     20.01702398	      7.94480621	     -7.65092250	     10.96681842	     -8.62927736	      6.82289263	      5.52630227	     38.24075512	    -16.06132056	     -7.75703625	     67.12129327	     45.30442661	      0.00000000	      0.00000000	     -7.29196682	     -5.01891956	      2.25158369	     21.41784650	     44.62249356	      0.00000000	      0.00000000
     29.36200000	     -5.93373240	     -5.98878595	      4.43098435	      0.85282763	      0.92541012	      0.50873905	      2.59063342	      6.78004300	    -20.85414366	      5.53136051	      5.53136051	     10.84740357	      4.91361993	     -7.36518341	     35.07610198	     -8.63394939	     -1.34800028	     17.18203851	     17.18203851	      7.72251145	     -5.34858461	     11.16212996	     -8.54027572	      6.68833676	      5.32408266	     39.12107289	    -15.67539949	     -7.83572733	     68.31944100	     45.27140685	      0.00000000	      0.00000000	     -8.21378219	     -4.94847235	      2.39508568	     21.34986241	     44.57700631	      0.00000000	      0.00000000
     29.37428571	     -5.96607866	     -6.01542081	      4.51659663	      0.85395507	      0.92453307	      0.50782190	      1.94086034	      6.80866812	    -20.96791111	      5.38825108	      5.38825108	     11.30123686	      5.31234190	     -7.25514529	     34.87392615	     -8.38220341	     -2.00783153	     15.17345981	     15.17345981	      7.47187421	     -3.47225083	     11.18481124	     -8.42331168	      6.74476129	      5.16938626	     39.93599198	    -15.42295375	     -7.98543698	     69.57736601	     45.23936584	      0.00000000	      0.00000000	     -9.16430812	     -4.90230680	      2.53348663	     21.41295976	     44.53084948	      0.00000000	      0.00000000
